<?xml version="1.0" encoding="UTF-8"?>
<svg version="1.1" id="Layer_1" xmlns="http://www.w3.org/2000/svg" xmlns:xlink="http://www.w3.org/1999/xlink" x="0px" y="0px" width="500" height="96" viewBox="0 0 395 76" enable-background="new 0 0 395 76" xml:space="preserve">
 <g>
  <path fill="#212121" d="M260 62l0 -20 -22 0 0 20 22 0zm-260 -47l0 15c0,3 0,5 1,7 1,2 2,4 4,5 2,1 3,2 6,2 2,1 4,1 7,1l9 0 0 17 20 0 0 -47 -20 0 0 20 -3 0c0,0 -1,0 -1,0 -1,-1 -1,-2 -2,-2 0,-1 0,-3 0,-4l0 -14 -21 0zm226 47l0 -27c0,-3 0,-7 -1,-9 -1,-3 -2,-5 -4,-7 -1,-2 -4,-3 -6,-4 -3,-1 -7,-1 -10,-1 -3,0 -5,0 -8,0 -2,0 -4,1 -6,1 -2,0 -4,1 -6,1 -1,1 -2,1 -3,2l0 11c1,-1 2,-1 3,-1 1,-1 3,-1 4,-2 2,0 3,0 5,0 2,-1 3,-1 4,-1 2,0 3,0 4,1 1,0 2,0 3,1 0,1 1,2 1,3l0 2c-1,0 -2,-1 -3,-1 -1,0 -2,0 -4,-1 -1,0 -3,0 -5,0 -3,0 -5,0 -7,1 -2,1 -4,2 -6,4 -1,1 -2,3 -3,5 0,1 -1,3 -1,5l0 3c0,3 1,5 1,7 1,1 2,3 4,4 1,1 3,2 5,2 1,1 3,1 6,1 2,0 3,0 5,0 2,-1 3,-1 4,-2 1,-1 2,-2 3,-3 1,0 1,-1 1,-2l1 7 19 0zm-56 -35l0 -12 -50 0 0 12 15 0 0 35 20 0 0 -35 15 0zm-107 35l0 -47 17 0 0 19 15 -17 0 -2 17 0 0 47 -17 0 0 -19 -15 17 0 2 -17 0z"/>
  <path fill="#03a9f4" d="M395 15l-22 0 -9 25 -8 -25 -26 0 20 46 -6 15 27 0 24 -61zm-131 -15l-29 0 4 34 21 0 4 -34zm65 41l0 -6c0,-2 -1,-4 -1,-6 0,-2 -1,-4 -2,-6 -1,-2 -2,-4 -4,-5 -1,-1 -3,-2 -5,-3 -2,-1 -5,-1 -8,-1 -3,0 -5,0 -7,1 -2,0 -3,1 -4,1 -2,1 -2,2 -3,3l0 -4 -23 0 0 61 23 0 0 -15c1,0 1,0 2,0 1,0 1,0 2,0 1,1 2,1 3,1 1,0 2,0 3,0 0,0 1,0 1,0 5,0 9,-1 12,-3 4,-1 6,-4 8,-7 2,-3 3,-7 3,-11z"/>
 </g>
</svg>